<svg width="1410" height="281" viewBox="0 0 1410 281" fill="none" xmlns="http://www.w3.org/2000/svg">
<path d="M0.327944 150.589C0.984105 73.4899 44.6187 19.3567 123.686 19.3567C152.557 19.3567 183.725 24.606 206.362 43.9627L206.034 106.954H201.113C184.709 65.2879 162.728 26.2464 120.733 26.2464C73.4898 26.2464 35.1044 55.1174 33.7921 123.358C32.8079 158.463 39.6975 188.646 53.1488 211.283C70.5371 240.811 99.4081 257.215 134.513 257.215C170.601 257.215 196.848 236.218 208.331 205.378L212.596 206.69C201.769 253.278 164.04 280.508 117.453 280.508C78.411 280.508 49.5399 266.401 28.5428 239.17C10.1703 217.517 -0.000136195 187.006 0.327944 150.589ZM236.135 153.541C236.135 131.56 236.135 127.295 219.403 112.859V110.563L269.6 86.285L271.24 86.9412V215.549C271.24 247.044 287.644 260.167 307.657 260.167C328.982 260.167 347.026 244.42 355.557 226.703V153.541C355.557 131.56 355.557 127.295 338.824 112.859V110.563L388.693 86.285L390.333 86.9412V239.17C390.333 253.606 394.926 260.167 404.769 260.167C408.049 260.167 411.986 259.511 416.579 258.199L417.564 259.839C410.346 271.322 396.238 279.852 383.443 279.852C359.165 279.852 356.541 258.855 355.885 239.498H355.228C341.777 261.152 321.764 279.852 289.612 279.852C257.461 279.852 236.135 261.808 236.135 223.422V153.541ZM434.883 231.953V151.573C434.883 129.592 434.555 123.358 418.479 112.859V110.563L468.019 86.285L469.659 86.9412V128.279H470.643C484.751 106.626 507.388 86.9412 537.9 86.9412C570.052 86.9412 593.345 105.314 593.345 143.699V231.953C593.345 250.981 593.345 260.495 606.797 273.291V275.587H545.118V273.291C558.241 260.495 558.241 250.981 558.241 231.953V151.901C558.241 122.702 540.853 110.891 520.512 110.891C498.53 110.891 481.47 122.374 469.659 137.137V231.953C469.659 250.981 469.659 260.495 482.782 273.291V275.587H421.76V273.291C434.883 260.495 434.883 250.981 434.883 231.953ZM632.059 153.541C632.059 131.56 632.059 127.295 615.327 112.859V110.563L665.195 86.285L666.835 86.9412V231.953C666.835 250.981 666.835 260.495 679.958 273.291V275.587H618.936V273.291C632.059 260.495 632.059 250.981 632.059 231.953V153.541ZM621.56 38.7134C621.56 25.5902 631.731 15.0916 643.542 15.0916C655.352 15.0916 665.195 25.5902 665.195 38.7134C665.195 51.5085 655.352 62.0071 643.542 62.0071C631.731 62.0071 621.56 51.5085 621.56 38.7134ZM705.19 231.953V101.049H680.912V93.1747H704.862L706.83 75.4584C712.408 27.2306 739.638 -4.14684e-05 783.273 -4.14684e-05C792.459 -4.14684e-05 805.582 1.31228 813.784 6.23348V34.7764L812.472 35.4326C792.131 21.3252 773.102 14.7636 759.323 14.7636C751.121 14.7636 744.888 17.0601 740.951 21.3252C729.14 33.7922 733.405 69.2248 740.294 93.1747H792.787V101.049H740.294V231.953C740.294 250.981 740.294 260.495 755.714 273.291V275.587H692.067V273.291C705.19 260.495 705.19 250.981 705.19 231.953ZM871.69 279.852C815.917 279.852 783.109 245.404 783.109 187.006C783.109 127.623 816.901 87.2692 872.675 87.2692C927.464 87.2692 958.304 122.374 958.304 179.46C958.304 239.498 924.183 279.852 871.69 279.852ZM876.284 272.963C908.763 271.978 926.48 244.748 922.543 182.412C918.606 120.405 897.937 93.1747 865.129 94.1589C833.305 95.1432 814.933 122.374 819.198 185.037C822.806 246.716 843.804 273.619 876.284 272.963ZM984.399 231.953V153.541C984.399 131.56 984.399 127.295 967.667 112.859V110.563L1017.86 86.285L1019.5 86.9412V139.762H1020.49C1029.35 109.907 1053.3 86.9412 1083.81 86.9412C1087.74 86.9412 1093.65 87.2692 1097.91 89.5658L1093.32 125.655L1091.02 126.311C1085.12 121.718 1075.6 119.093 1066.42 119.093C1045.09 119.093 1026.72 133.857 1019.5 151.245V231.953C1019.5 250.981 1019.5 260.495 1034.92 273.291V275.587H971.276V273.291C984.399 260.495 984.399 250.981 984.399 231.953ZM1122.58 153.541C1122.58 131.56 1122.58 127.295 1105.84 112.859V110.563L1156.04 86.285L1157.68 86.9412V128.279H1158.34C1173.1 106.298 1192.13 86.9412 1223.63 86.9412C1250.86 86.9412 1269.56 101.705 1275.13 128.607H1275.79C1290.88 106.298 1311.88 86.9412 1343.05 86.9412C1375.2 86.9412 1396.52 105.314 1396.52 143.699V231.953C1396.52 250.981 1396.52 260.495 1409.97 273.291V275.587H1348.62V273.291C1361.75 260.495 1361.75 250.981 1361.75 231.953V151.573C1361.75 122.702 1345.02 111.219 1324.67 111.219C1303.35 111.219 1287.27 124.342 1277.1 137.137V231.953C1277.1 250.981 1277.1 260.495 1290.55 273.291V275.587H1229.2V273.291C1242.33 260.495 1242.33 250.981 1242.33 231.953V151.573C1242.33 122.374 1225.59 110.891 1205.25 110.891C1183.27 110.891 1166.54 126.639 1157.68 137.137V231.953C1157.68 250.981 1157.68 260.495 1170.8 273.291V275.587H1109.45V273.291C1122.58 260.495 1122.58 250.981 1122.58 231.953V153.541Z" fill="white"/>
</svg>
